<svg xmlns="http://www.w3.org/2000/svg" width="16.908" height="18.317" viewBox="0 0 16.908 18.317">
  <path id="calendar-blank" d="M47.5,17.409H45.386v-.7a.7.7,0,1,0-1.409,0v.7H36.932v-.7a.7.7,0,1,0-1.409,0v.7H33.409A1.409,1.409,0,0,0,32,18.818v14.09a1.409,1.409,0,0,0,1.409,1.409H47.5a1.409,1.409,0,0,0,1.409-1.409V18.818A1.409,1.409,0,0,0,47.5,17.409ZM35.523,18.818v.7a.7.7,0,1,0,1.409,0v-.7h7.045v.7a.7.7,0,1,0,1.409,0v-.7H47.5v2.818H33.409V18.818ZM47.5,32.908H33.409V23.045H47.5Z" transform="translate(-32 -16)" fill="rgba(0,0,0,0.6)"/>
</svg>
