<svg xmlns="http://www.w3.org/2000/svg" width="57.586" height="55.883" viewBox="0 0 57.586 55.883">
  <g id="Group_5025" data-name="Group 5025" transform="translate(-1544.663 -2088.096)">
    <path id="Path_591" data-name="Path 591" d="M1592.746,2103.347h-38.58a7.043,7.043,0,0,0-7,7v24.13a7.043,7.043,0,0,0,7,7h38.58a7.042,7.042,0,0,0,7-7v-24.13A7.043,7.043,0,0,0,1592.746,2103.347Zm-40.234,9.358V2106h13.557v6.708Zm27.792,23.352a12.884,12.884,0,1,1,12.886-12.882A12.884,12.884,0,0,1,1580.3,2136.057Z" fill="none" stroke="#d1cdcd" stroke-width="5"/>
    <path id="Path_592" data-name="Path 592" d="M1583.141,2089.1h-19.366v10.465h19.366Zm-2.682,7.781h-14v-5.1h14Z" fill="none" stroke="#d1cdcd" stroke-width="2"/>
  </g>
</svg>
