<svg xmlns="http://www.w3.org/2000/svg" width="74.324" height="52.655" viewBox="0 0 74.324 52.655">
  <g id="Group_5022" data-name="Group 5022" transform="translate(-752.85 -2343.629)">
    <path id="Path_582" data-name="Path 582" d="M805.912,2368.593c.11.055.22.08.332.149l.717.444,3.71-6.02h-1.412Z" fill="none" stroke="#d1cdcd" stroke-width="3"/>
    <path id="Path_583" data-name="Path 583" d="M802.551,2379.508l6.976-5.32-5.357-3.3Z" fill="none" stroke="#d1cdcd" stroke-width="3"/>
    <path id="Path_584" data-name="Path 584" d="M820.607,2347.672a4.851,4.851,0,0,1-1.409-1.324l-1.9,3.082,5.509,3.4,1.9-3.078a4.833,4.833,0,0,1-1.815-.668Z" fill="none" stroke="#d1cdcd" stroke-width="3"/>
    <path id="Path_585" data-name="Path 585" d="M813.2,2372.009l-1.515,2.457a2.845,2.845,0,0,1-.4.644l-.076.12-.023-.014a3.733,3.733,0,0,1-.473.441l-7.93,6.049a2.725,2.725,0,0,1-1.415.643c-.776.037-1.154-.7-.9-2.069l1.841-9.8a3.47,3.47,0,0,1,.2-.609l-.034-.02.09-.146a2.626,2.626,0,0,1,.332-.539l1.564-2.536,2.135-3.464H753.85v32.118h70.5v-32.118h-5.691l-4.1,6.64Zm-53.278-3.546h34.229v3.111H759.926Zm0,5.705h34.229v2.075H759.926Zm0,5.029h34.229v1.74H759.926Zm55.846,8.679,3.4,2.466a.75.75,0,0,1-.44,1.358.761.761,0,0,1-.441-.143l-2.975-2.158-3.22,2.172a.75.75,0,0,1-.908-.053l-3.7-3.17-3.511,2.766a.751.751,0,0,1-.854.051L798.4,2388.3l-3.761,3.218a.752.752,0,0,1-.814.106l-6.707-3.231a.75.75,0,1,1,.65-1.351l6.267,3.017,3.8-3.253a.753.753,0,0,1,.877-.07l4.741,2.876,3.587-2.824a.75.75,0,0,1,.952.019l3.732,3.2,3.182-2.145A.749.749,0,0,1,815.772,2387.876Z" fill="none" stroke="#d1cdcd" stroke-width="2"/>
    <path id="Path_586" data-name="Path 586" d="M815.44,2355.429c.606-.987,1.744-2.832,1.858-3.016.022-.034.341-.553.341-.553l-1.025-.631-.644,1.047-1.986,3.221h0l-2.878,4.668h1.413Z" fill="none" stroke="#d1cdcd" stroke-width="3"/>
  </g>
</svg>
