<svg id="Group_58" data-name="Group 58" xmlns="http://www.w3.org/2000/svg" width="48" height="48" viewBox="0 0 48 48">
  <circle id="Ellipse_12" data-name="Ellipse 12" cx="23" cy="23" r="23" transform="translate(1 1)" fill="none" stroke="#fff" stroke-linecap="round" stroke-linejoin="round" stroke-miterlimit="10" stroke-width="2"/>
  <path id="Path_127" data-name="Path 127" d="M9.888,15.314c-.863,2.7-.12,7.036,5.366,10.137s6.561,2.387,7.037,2.863-1.073.357-.835-1.074-.715-1.227-1.431-1.269-.955-1.475-.717-2.308-1.192,1.073-2.266-.716a1.932,1.932,0,0,1,2.266-2.862c3.937,1.192,3.323-2.416,6.44-4.77C31.593,10.9,23.006,8.4,18.593,7.682S8.038,8.754,9.5,10.424,10.1,14.656,9.888,15.314Z" fill="none" stroke="#fff" stroke-linecap="round" stroke-linejoin="round" stroke-miterlimit="10" stroke-width="2"/>
  <path id="Path_128" data-name="Path 128" d="M23.6,31.891c-.358,2.743-2.982.358,0,3.1s3.7-2.979,3.338,3.222-5.6,6.8-1.431,5.484,3.458-.237,6.56-3.338,3.578-4.772,5.248-7.276-1.073-1.537-2.982-3.339-5.009-5.844-7.514-3.221A13.616,13.616,0,0,0,23.6,31.891Z" fill="none" stroke="#fff" stroke-linecap="round" stroke-linejoin="round" stroke-miterlimit="10" stroke-width="2"/>
  <path id="Path_129" data-name="Path 129" d="M30.5,1.934c-.1,1.537.679,5.555,2.73,7.5s8.607,3.689,8.813,6.148,2.971,4.3,1.947,6.661-2.935,5.542-.615,7.48,2.758.553,2.758.553" fill="none" stroke="#fff" stroke-linecap="round" stroke-linejoin="round" stroke-miterlimit="10" stroke-width="2"/>
</svg>
