<svg xmlns="http://www.w3.org/2000/svg" width="19.774" height="23.531" viewBox="0 0 19.774 23.531">
  <path id="Icon_awesome-apple" data-name="Icon awesome-apple" d="M16.814,14.685A4.9,4.9,0,0,1,19.44,10.23a5.644,5.644,0,0,0-4.45-2.343c-1.865-.147-3.9,1.087-4.649,1.087-.788,0-2.6-1.035-4.014-1.035-2.931.047-6.047,2.338-6.047,7A13.094,13.094,0,0,0,1.038,19.2c.672,1.928,3.1,6.656,5.632,6.577,1.324-.032,2.259-.94,3.982-.94,1.671,0,2.537.94,4.014.94,2.553-.037,4.749-4.334,5.39-6.267a5.208,5.208,0,0,1-3.241-4.828ZM13.84,6.059A4.948,4.948,0,0,0,15.1,2.25a5.571,5.571,0,0,0-3.567,1.833,5.026,5.026,0,0,0-1.345,3.777A4.412,4.412,0,0,0,13.84,6.059Z" transform="translate(-0.281 -2.25)" fill="#fff"/>
</svg>
