<svg id="icon_action_search_24px" data-name="icon/action/search_24px" xmlns="http://www.w3.org/2000/svg" width="31.914" height="31.914" viewBox="0 0 31.914 31.914">
  <rect id="Boundary" width="31.914" height="31.914" fill="none"/>
  <path id="_Color" data-name=" ↳Color" d="M21.9,24.916h0l-6.842-7.107V16.682l-.37-.4A8.68,8.68,0,0,1,8.9,18.52,9.093,9.093,0,0,1,0,9.26,9.093,9.093,0,0,1,8.9,0a9.093,9.093,0,0,1,8.9,9.26,9.472,9.472,0,0,1-2.148,6.026l.383.385h1.081l6.828,7.124L21.9,24.915ZM8.9,2.849A6.3,6.3,0,0,0,2.737,9.26,6.3,6.3,0,0,0,8.9,15.671,6.3,6.3,0,0,0,15.054,9.26,6.3,6.3,0,0,0,8.9,2.849Z" transform="translate(3.989 4.153)" fill="#707070"/>
</svg>
