<svg xmlns="http://www.w3.org/2000/svg" width="25.206" height="32.08" viewBox="0 0 25.206 32.08">
  <path id="map-pin" d="M52.6,22.874A5.729,5.729,0,1,0,58.332,28.6,5.729,5.729,0,0,0,52.6,22.874Zm0,9.166A3.437,3.437,0,1,1,56.04,28.6,3.437,3.437,0,0,1,52.6,32.04ZM52.6,16A12.617,12.617,0,0,0,40,28.6c0,4.5,2.078,9.263,6.015,13.785a36.405,36.405,0,0,0,5.936,5.485,1.146,1.146,0,0,0,1.315,0,36.4,36.4,0,0,0,5.925-5.485c3.931-4.521,6.015-9.288,6.015-13.785A12.617,12.617,0,0,0,52.6,16Zm0,29.5c-2.367-1.862-10.312-8.7-10.312-16.9a10.312,10.312,0,1,1,20.623,0C62.915,36.8,54.971,43.641,52.6,45.5Z" transform="translate(-40 -16)" fill="#fff"/>
</svg>
