<svg xmlns="http://www.w3.org/2000/svg" width="30.041" height="27.731" viewBox="0 0 30.041 27.731">
  <g id="Group_5984" data-name="Group 5984" transform="translate(0 0)">
    <path id="storefront" d="M54.041,41.244A1.139,1.139,0,0,0,54,40.926l-2.073-7.25A2.321,2.321,0,0,0,49.709,32H28.333a2.321,2.321,0,0,0-2.217,1.675l-2.071,7.25a1.139,1.139,0,0,0-.045.318v2.311a5.777,5.777,0,0,0,2.311,4.622V57.42a2.311,2.311,0,0,0,2.311,2.311h20.8a2.311,2.311,0,0,0,2.311-2.311V48.176a5.777,5.777,0,0,0,2.311-4.622ZM28.333,34.311H49.709l1.649,5.777H26.688ZM35.554,42.4h6.933v1.155a3.466,3.466,0,0,1-6.933,0Zm-2.311,0v1.155a3.466,3.466,0,0,1-6.933,0V42.4ZM49.42,57.42h-20.8v-8.2a5.857,5.857,0,0,0,1.155.116A5.777,5.777,0,0,0,34.4,47.021a5.777,5.777,0,0,0,9.244,0,5.777,5.777,0,0,0,4.622,2.311,5.858,5.858,0,0,0,1.155-.116Zm-1.155-10.4A3.466,3.466,0,0,1,44.8,43.554V42.4h6.933v1.155A3.466,3.466,0,0,1,48.264,47.021Z" transform="translate(-24 -32)" fill="#fff"/>
  </g>
</svg>
