<svg xmlns="http://www.w3.org/2000/svg" width="33.054" height="33.055" viewBox="0 0 33.054 33.055">
  <path id="Icon_awesome-phone-alt" data-name="Icon awesome-phone-alt" d="M30.143,21.926l-6.788-2.909a1.454,1.454,0,0,0-1.7.418l-3.006,3.673A22.463,22.463,0,0,1,7.915,12.37l3.673-3.006a1.451,1.451,0,0,0,.418-1.7L9.1.879A1.464,1.464,0,0,0,7.43.037l-6.3,1.454A1.454,1.454,0,0,0,0,2.909a28.117,28.117,0,0,0,28.12,28.12A1.454,1.454,0,0,0,29.538,29.9l1.454-6.3A1.472,1.472,0,0,0,30.143,21.926Z" transform="translate(1 1.026)" fill="none" stroke="#000" stroke-width="2"/>
</svg>
