<svg xmlns="http://www.w3.org/2000/svg" width="63.475" height="58.592" viewBox="0 0 63.475 58.592">
  <g id="Group_5984" data-name="Group 5984" transform="translate(-202.125 -452.908)">
    <path id="storefront" d="M87.475,51.531a2.406,2.406,0,0,0-.092-.671L83,35.54A4.9,4.9,0,0,0,78.32,32H33.155a4.9,4.9,0,0,0-4.684,3.54L24.095,50.859a2.406,2.406,0,0,0-.095.671v4.883a12.207,12.207,0,0,0,4.883,9.765V85.709a4.883,4.883,0,0,0,4.883,4.883H77.709a4.883,4.883,0,0,0,4.883-4.883V66.179a12.207,12.207,0,0,0,4.883-9.765ZM33.155,36.883H78.32L81.8,49.089H29.679ZM48.413,53.972H63.061v2.441a7.324,7.324,0,0,1-14.648,0Zm-4.883,0v2.441a7.324,7.324,0,0,1-14.648,0V53.972ZM77.709,85.709H33.765V68.376a12.375,12.375,0,0,0,2.441.244,12.207,12.207,0,0,0,9.765-4.883,12.207,12.207,0,0,0,19.531,0,12.207,12.207,0,0,0,9.765,4.883,12.378,12.378,0,0,0,2.441-.244ZM75.268,63.737a7.324,7.324,0,0,1-7.324-7.324V53.972H82.592v2.441A7.324,7.324,0,0,1,75.268,63.737Z" transform="translate(178.125 420.908)" fill="#d1cdcd"/>
  </g>
</svg>
