<svg xmlns="http://www.w3.org/2000/svg" width="33.244" height="33.239" viewBox="0 0 33.244 33.239">
  <path id="Icon_awesome-upload" data-name="Icon awesome-upload" d="M18.641,24.183H13.6a1.508,1.508,0,0,1-1.511-1.511V12.092H6.568A1.257,1.257,0,0,1,5.68,9.945L15.259.36a1.22,1.22,0,0,1,1.719,0l9.585,9.585a1.257,1.257,0,0,1-.888,2.147H20.152v10.58A1.508,1.508,0,0,1,18.641,24.183Zm13.6-.5v7.053a1.508,1.508,0,0,1-1.511,1.511H1.511A1.508,1.508,0,0,1,0,30.733V23.68a1.508,1.508,0,0,1,1.511-1.511h8.565v.5A3.529,3.529,0,0,0,13.6,26.2h5.038a3.529,3.529,0,0,0,3.527-3.527v-.5h8.565A1.508,1.508,0,0,1,32.244,23.68Zm-7.809,5.542a1.26,1.26,0,1,0-1.26,1.26A1.263,1.263,0,0,0,24.435,29.222Zm4.03,0a1.26,1.26,0,1,0-1.26,1.26A1.263,1.263,0,0,0,28.465,29.222Z" transform="translate(0.5 0.495)" fill="none" stroke="#565656" stroke-width="1"/>
</svg>
