<svg xmlns="http://www.w3.org/2000/svg" width="33.203" height="21.123" viewBox="0 0 33.203 21.123">
  <path id="users" d="M17.412,62.488a7.92,7.92,0,1,0-8.778,0A12.649,12.649,0,0,0,2.4,67.466,1.056,1.056,0,1,0,4.17,68.619a10.56,10.56,0,0,1,17.706,0,1.056,1.056,0,1,0,1.769-1.154,12.649,12.649,0,0,0-6.233-4.978ZM7.215,55.9a5.808,5.808,0,1,1,5.808,5.808A5.808,5.808,0,0,1,7.215,55.9ZM34.953,68.927a1.056,1.056,0,0,1-1.461-.308,10.537,10.537,0,0,0-8.853-4.8,1.056,1.056,0,0,1,0-2.112,5.808,5.808,0,1,0-2.157-11.2,1.056,1.056,0,1,1-.784-1.96,7.92,7.92,0,0,1,7.33,13.944,12.649,12.649,0,0,1,6.233,4.978A1.056,1.056,0,0,1,34.953,68.927Z" transform="translate(-2.229 -47.976)" fill="#fff"/>
</svg>
