<svg xmlns="http://www.w3.org/2000/svg" width="47.832" height="40.727" viewBox="0 0 47.832 40.727">
  <g id="Group_5021" data-name="Group 5021" transform="translate(-1549.54 -2558.308)">
    <path id="Path_581" data-name="Path 581" d="M1592.4,2597.511h-38.018s-3.346.4-3.346-2.935v-30.281l.038.024a3.519,3.519,0,0,1-.037-.557,3.341,3.341,0,0,1,.238-1.181c.8-2.012,3.337-2.718,3.444-2.747l.1-.026H1590.8v1.5h-35.772a3.909,3.909,0,0,0-2.355,1.829,2.811,2.811,0,0,0,.484,2.494H1592.4v9.763h-14.977c-.042,0-4.2.361-4.2,5.636s4.559,5.634,4.637,5.638H1592.4Zm-36.684-34.582v-1h34.415v1Zm34.415.865v1H1555.72v-1Zm5.737,22.378h-18.009s-4.135-.267-4.135-5.136,3.735-5.136,3.735-5.136h18.409Z" fill="none" stroke="#d1cdcd" stroke-width="3"/>
  </g>
</svg>
