<svg xmlns="http://www.w3.org/2000/svg" width="26.125" height="26.095" viewBox="0 0 26.125 26.095">
  <path id="Icon_ionic-logo-whatsapp" data-name="Icon ionic-logo-whatsapp" d="M14.235,2.25A11.513,11.513,0,0,0,2.677,13.718,11.35,11.35,0,0,0,4.336,19.64L2.25,25.793l6.4-2.033A11.577,11.577,0,0,0,25.793,13.718,11.513,11.513,0,0,0,14.235,2.25Zm5.747,15.824a2.985,2.985,0,0,1-2.044,1.318c-.542.029-.557.42-3.513-.864A12.059,12.059,0,0,1,9.553,13.92a5.668,5.668,0,0,1-1.09-3.072,3.275,3.275,0,0,1,1.125-2.4,1.132,1.132,0,0,1,.8-.337c.233,0,.383-.007.556,0s.431-.036.654.559.759,2.058.827,2.207a.535.535,0,0,1,.005.513,2.007,2.007,0,0,1-.313.477c-.154.165-.324.37-.462.5-.153.14-.314.293-.152.592a8.844,8.844,0,0,0,1.565,2.088,8.064,8.064,0,0,0,2.317,1.541c.29.158.463.14.642-.049s.769-.827.977-1.112.4-.23.67-.122,1.69.87,1.98,1.027.483.238.552.363A2.427,2.427,0,0,1,19.982,18.074Z" transform="translate(-0.668 -1.25)" fill="none" stroke="#4ec773" stroke-width="2"/>
</svg>
